<?xml version="1.0" encoding="utf-8"?>
<!-- Generator: Adobe Illustrator 27.7.0, SVG Export Plug-In . SVG Version: 6.00 Build 0)  -->
<svg version="1.1" id="Layer_1" xmlns="http://www.w3.org/2000/svg" xmlns:xlink="http://www.w3.org/1999/xlink" x="0px" y="0px"
	 viewBox="0 0 595.28 841.89" style="enable-background:new 0 0 595.28 841.89;" xml:space="preserve">
<style type="text/css">
	.st0{fill:none;}
	.st1{fill:url(#SVGID_1_);stroke:#15FFFB;stroke-width:4;stroke-miterlimit:10;}
</style>
<pattern  y="841.89" width="638" height="483.18" patternUnits="userSpaceOnUse" id="New_Pattern_Swatch_1" viewBox="6 -484.18 638 483.18" style="overflow:visible;">
	<g>
		<rect x="6" y="-484.18" class="st0" width="638" height="483.18"/>
		<rect x="6" y="-481" class="st0" width="638" height="480"/>
		<text transform="matrix(1 0 0 1 6 -463.25)"><tspan x="0" y="0" style="fill:#15EEFF; font-family:'Helvetica' ; font-size:25px;">1000010101001111001111011100000011011011100011110</tspan><tspan x="0" y="30" style="fill:#15EEFF; font-family:'Helvetica'; font-size:25px;">1001101011110100010110111010110001101001001000111</tspan><tspan x="0" y="60" style="fill:#15EEFF; font-family:'Helvetica'; font-size:25px;">0111011110011100111110100110001101101011110000000</tspan><tspan x="0" y="90" style="fill:#15EEFF; font-family:'Helvetica'; font-size:25px;">0000110111000011000011000100000111111000001011111</tspan><tspan x="0" y="120" style="fill:#15EEFF; font-family:'Helvetica'; font-size:25px;">1111101001110100101101010100101110000111001111111</tspan><tspan x="0" y="150" style="fill:#15EEFF; font-family:'Helvetica'; font-size:25px;">1101100110101101110000011000110011110100101001110</tspan><tspan x="0" y="180" style="fill:#15EEFF; font-family:'Helvetica'; font-size:25px;">0100000101110001100000000010010110011001010110101</tspan><tspan x="0" y="210" style="fill:#15EEFF; font-family:'Helvetica'; font-size:25px;">1010001000101000010100010101101011111100111000010</tspan><tspan x="0" y="240" style="fill:#15EEFF; font-family:'Helvetica'; font-size:25px;">1000010110011000010011101101101111000111011100100</tspan><tspan x="0" y="270" style="fill:#15EEFF; font-family:'Helvetica'; font-size:25px;">0101011011000001111011001010100100011111000011000</tspan><tspan x="0" y="300" style="fill:#15EEFF; font-family:'Helvetica'; font-size:25px;">0001001100011000001110001100110111010010001101110</tspan><tspan x="0" y="330" style="fill:#15EEFF; font-family:'Helvetica'; font-size:25px;">0001010000101101000111110000010001011001110011111</tspan><tspan x="0" y="360" style="fill:#15EEFF; font-family:'Helvetica'; font-size:25px;">1111111001100001011001000001110110000000100001111</tspan><tspan x="0" y="390" style="fill:#15EEFF; font-family:'Helvetica'; font-size:25px;">0010010011001100011100000111110001110100100011111</tspan><tspan x="0" y="420" style="fill:#15EEFF; font-family:'Helvetica'; font-size:25px;">0101001010011111111101010110110001111010001101000</tspan><tspan x="0" y="450" style="fill:#15EEFF; font-family:'Helvetica'; font-size:25px;">1111110001101100110011010001011100100110110110010</tspan></text>
	</g>
</pattern>
<pattern  id="SVGID_1_" xlink:href="#New_Pattern_Swatch_1" patternTransform="matrix(1.1385 0 0 1.1385 684.3091 1224.6566)">
</pattern>
<path class="st1" d="M632.64,814.71c0,7.67,0,15.33,0,23c-223.33,0-446.67,0-670,0c0-5,0-10,0-15c17.34-8.78,34.66-17.6,52.04-26.32
	c13.52-6.78,26.99-13.68,40.69-20.08c9.76-4.56,19.87-8.37,29.83-12.52c6.43-2.68,12.67-6.08,19.34-7.89
	c10.03-2.73,12.04-4.13,12.22-14.41c0.39-22.16,0.84-44.32,0.59-66.47c-0.14-12.95-0.58-26.01-5.34-38.43
	c-5.85-15.22-11.61-30.48-17.21-45.79c-1.27-3.47-3.18-5.34-6.87-5.26c-16.11,0.33-29.53-15.18-31.34-31.51
	c-0.5-4.54-2.78-9.03-4.92-13.2c-3.34-6.48-7.65-12.47-10.84-19.01c-6.78-13.91-13.01-28.09-19.63-42.08
	c-8.17-17.26-10.32-35.18-5.05-53.52c4.26-14.82,13.35-20.34,28.53-18.78c1.2,0.12,2.43,0.02,3.57,0.02
	c-0.46-3.69-1.33-6.81-1.13-9.85c0.43-6.45,1.63-12.85,2.13-19.31c1.48-18.86-0.67-37.53-2.98-56.2
	c-1.26-10.18-2.07-20.44-2.72-30.68c-0.42-6.61,0.06-13.28-0.36-19.89c-0.18-2.88-2.16-5.64-2.38-8.53
	c-0.75-10.07-1.25-20.17-1.53-30.27c-0.15-5.25,0.55-10.52,0.53-15.78c-0.02-8-1.42-15.97,2.03-23.82c1.72-3.9,1.32-8.7,2.82-12.74
	c1.52-4.11,2.79-7.76-0.51-11.25c1.74-1.96,3.7-3.45,4.69-5.42c5.72-11.4,11.2-22.92,16.8-34.38c0.43-0.88,1.23-1.57,1.7-2.44
	c2.79-5.12,5.66-10.21,8.21-15.45c0.82-1.67,0.13-4.26,1.19-5.6c3.44-4.38,7.19-8.57,11.17-12.47c3.66-3.58,8.48-6.16,11.55-10.13
	c6.13-7.95,14.53-11.8,23.35-15.47c11.66-4.84,23.04-10.06,32.39-19.12c4.83-4.67,10.61-8.86,16.71-11.62
	c19.16-8.65,38.97-15.39,60.03-18.11c17.28-2.23,34.54-2.53,51.78-0.51c6.7,0.79,13.18,3.31,19.85,4.5
	c9.11,1.62,18.31,2.73,26.38,3.9c2.08,5.01,5.84,4.66,9.37,4.65c11.19-0.04,22.37-0.12,33.56-0.16c0.65,0,1.29,0.31,1.95,0.41
	c3.44,0.48,6.89,0.86,10.31,1.42c12.57,2.06,25.19,3.88,37.68,6.38c6.47,1.3,12.8,3.57,19.01,5.9c9.78,3.66,19.78,7.76,26.26,16.12
	c5.84,7.54,10.12,16.23,16.98,23.2c1.65,1.68,1.77,6.7,0.51,9.09c-4.07,7.74-3.89,12.66,2.46,18.63c4.24,3.99,9,7.47,12.91,11.74
	c5.13,5.59,10.26,11.37,14.22,17.78c2.63,4.26,4.39,9.58,2.42,15.1c-0.27,0.75,0.62,1.94,1.02,2.9c0.57,1.34,1.2,2.65,1.78,3.98
	c2.35,5.39-2.19,12.62,4.51,16.94c0.54,0.35,0.35,1.83,0.51,2.78c0.25,1.54,0.35,3.12,0.79,4.61c2.34,7.87,4.79,15.7,7.15,23.56
	c0.23,0.77,0.07,1.66,0.17,2.48c0.84,7.53,0.47,15.45,2.78,22.49c5.76,17.53,6.21,35.55,6.67,53.59c0.29,11.3-0.43,22.62-0.64,33.93
	c-0.3,16.45-0.53,32.9-0.86,49.35c-0.03,1.65-0.44,3.3-0.78,4.92c-2.12,10.05-4.21,20.11-6.45,30.14c-1.03,4.64,0.37,6.68,5.36,7.1
	c9.39,0.78,14.07,5.07,16.12,14.31c0.86,3.88,1.38,7.91,1.49,11.88c0.43,15.59,2.95,31.52-4.96,46.11
	c-8.24,15.22-16.2,30.68-25.74,45.07c-5.92,8.94-10.07,17.12-9.2,28.35c0.87,11.29-7.59,22.01-17.32,24.16
	c-5.05,1.12-7.25,3.77-8.47,8.42c-5.7,21.7-14.13,42.32-24.52,62.2c-1.62,3.1-2.48,7.01-2.39,10.51
	c0.43,15.82,1.13,31.64,2.12,47.43c1.05,16.72,0.61,14.9,16.17,19.69c6.3,1.94,12.61,4.05,18.58,6.81
	c7.09,3.28,13.83,7.33,20.7,11.08c9.34,5.1,18.62,10.29,27.99,15.33c6.29,3.38,12.81,6.35,19,9.89c8.19,4.69,16.91,8.87,24.07,14.86
	C605.14,801.92,618.11,809.53,632.64,814.71z"/>
</svg>
